<?xml version="1.0" encoding="iso-8859-1"?>
<!-- Generator: Adobe Illustrator 19.0.0, SVG Export Plug-In . SVG Version: 6.00 Build 0)  -->
<svg version="1.1" id="Capa_1" xmlns="http://www.w3.org/2000/svg" xmlns:xlink="http://www.w3.org/1999/xlink" x="0px" y="0px"
	 viewBox="0 0 512 512" style="enable-background:new 0 0 512 512;" xml:space="preserve">
<g>
	<g>
		<path d="M498.773,208.49l-23.676-79.711c-6.588-22.179-19.872-41.215-38.415-55.051c-18.543-13.837-40.575-21.15-63.711-21.15
			h-40.199V45c0-24.813-20.187-45-45-45H224.23c-24.813,0-45,20.187-45,45v7.578h-40.2c-23.137,0-45.168,7.313-63.711,21.15
			C56.776,87.564,43.492,106.6,36.904,128.779L13.227,208.49C-1.044,256.535-2.222,307.646,9.821,356.3l18.505,74.762
			C40.122,478.717,82.648,512,131.742,512h248.517c49.094,0,91.62-33.283,103.416-80.938L502.18,356.3
			C514.222,307.646,513.044,256.535,498.773,208.49z M209.229,45c0-8.271,6.729-15,15-15h63.542c8.271,0,15,6.729,15,15v7.578
			h-93.542V45z M65.661,137.322c9.574-32.232,39.745-54.744,73.369-54.744h233.94c33.624,0,63.794,22.512,73.369,54.743
			l8.491,28.588h-47.987c-0.125,0-0.246,0.016-0.37,0.019l-3.354-11.292c-5.838-19.654-24.236-33.382-44.74-33.382H153.621
			c-20.504,0-38.902,13.728-44.74,33.382l-3.354,11.292c-0.124-0.003-0.245-0.019-0.37-0.019H57.17L65.661,137.322z
			 M327.878,349.273h65.477l-12.719,51.385c-1.846,7.457-8.501,12.666-16.184,12.666h-36.574V349.273z M327.877,215.333v-64.079
			h30.502c7.325,0,13.896,4.903,15.982,11.924l15.491,52.155H327.877z M327.879,319.273v-73.94h70.805
			c1.923,7.229,3.335,14.566,4.226,21.956h-23.172c-8.284,0-15,6.716-15,15s6.716,15,15,15h23.948
			c-0.499,7.372-1.498,14.718-3.019,21.984H327.879z M216,319.273v-73.94h81.878v73.94H216z M297.878,349.273v64.051H216v-64.051
			H297.878z M216,215.333v-64.079h81.878v64.079H216z M113.532,319.273c-0.737,0-1.456,0.071-2.165,0.174
			c-5.158-24.5-4.487-49.922,1.952-74.125c0.072,0.001,0.141,0.011,0.213,0.011H186v73.94H113.532z M186,349.273v64.051h-38.453
			c-7.683,0-14.338-5.209-16.184-12.666l-12.719-51.385H186z M122.147,215.333l15.491-52.154
			c2.086-7.021,8.658-11.925,15.982-11.925H186v64.079H122.147z M473.058,349.091l-18.505,74.762
			C446.079,458.089,415.527,482,380.258,482H131.742c-35.269,0-65.82-23.911-74.294-58.147l-18.505-74.762
			c-10.759-43.468-9.707-89.133,3.043-132.059l6.274-21.123h48.362l-10.829,36.459c-9.631,32.425-10.426,66.918-2.299,99.752
			l18.749,75.747c5.168,20.877,23.798,35.457,45.305,35.457h216.905c21.507,0,40.137-14.58,45.305-35.457l18.749-75.748
			c2.837-11.46,4.561-23.124,5.227-34.83h12.939c8.284,0,15-6.716,15-15s-6.716-15-15-15h-13.6
			c-1.195-11.788-3.469-23.484-6.866-34.921l-10.829-36.459h48.362l6.274,21.123C482.765,259.958,483.817,305.623,473.058,349.091z"
			/>
	</g>
</g>
<g>
</g>
<g>
</g>
<g>
</g>
<g>
</g>
<g>
</g>
<g>
</g>
<g>
</g>
<g>
</g>
<g>
</g>
<g>
</g>
<g>
</g>
<g>
</g>
<g>
</g>
<g>
</g>
<g>
</g>
</svg>
