<?xml version="1.0" encoding="utf-8"?><svg xmlns="http://www.w3.org/2000/svg" xmlns:xlink="http://www.w3.org/1999/xlink"><symbol viewBox="0 0 10 19" id="footer-fb-logo" xmlns="http://www.w3.org/2000/svg"><path d="M7.1 19H2v-8.8H0V5.8h1.9c-.1-2 .2-3.4 1.1-4.4C3.8.5 5 .1 6.5 0H10v4.2H7.2c-.1.2-.2.8-.2 1.6h3v4.4H7.1V19zm-4-1h2.8V9.1h2.9V6.8H5.9v-.5c0-1.4 0-2.6.7-3.1l.1-.1h2.1V1H6.5c-1.2.1-2 .4-2.6 1-.8.8-1 2.3-.8 4.2l.1.6H1.1v2.3h2V18z"/></symbol><symbol viewBox="10 10 40 40" id="footer-htmlacademy-logo" xmlns="http://www.w3.org/2000/svg"><path d="M30.2 5H30L10.3 7.1v36.2L30 55l19.7-11.7V7.1L30.2 5zm17 36.8L30 52 12.8 41.8V27l17.1 10.2V39l-11.7-7v1.8L30 40.9v1.9l-11.8-7v1.8l11.8 7 11.9-7.1v-7.6l5.3-3.2v15.1zm-.1-17l-4.7 2.8-2.2 1.3-10.3-6.1v1.8l8.8 5.3h-.1l-.2.1-1.3.7-7.3-4.3v1.8l5.8 3.4-1.4.9-4.3-2.6v1.8l2.9 1.7-2.9 1.7-17-10.1 17-10.2 17.2 10zm.1-1.8L29.9 12.8 12.8 23V9.4L30 7.6l17.2 1.8V23z"/></symbol><symbol viewBox="0 0 16 16" id="footer-inst-logo" xmlns="http://www.w3.org/2000/svg"><path class="cst0" d="M11.8 1C13.6 1 15 2.4 15 4.2v7.7c0 1.7-1.4 3.1-3.1 3.1H4.2C2.4 15 1 13.6 1 11.8V4.2C1 2.4 2.4 1 4.2 1h7.6m0-1H4.2C1.9 0 0 1.9 0 4.2v7.7C0 14.1 1.9 16 4.2 16h7.7c2.3 0 4.2-1.9 4.2-4.2V4.2C16 1.9 14.1 0 11.8 0z"/><path class="cst0" d="M8 4.9c1.7 0 3.1 1.4 3.1 3.1 0 1.7-1.4 3.1-3.1 3.1-1.7 0-3.1-1.4-3.1-3.1 0-1.7 1.4-3.1 3.1-3.1m0-1C5.7 3.9 3.9 5.7 3.9 8s1.8 4.1 4.1 4.1 4.1-1.8 4.1-4.1S10.3 3.9 8 3.9z"/><circle class="cst0" cx="12.3" cy="3.7" r=".9"/></symbol><symbol viewBox="0 0 22 12" id="footer-vk-logo" xmlns="http://www.w3.org/2000/svg"><path d="M17.6 12c-.3 0-.9-.1-1.5-.5-.5-.3-.9-.7-1.3-1.2-.3-.3-.9-.9-1.1-.9-.2.1-.4.7-.3 1.2 0 .1 0 .6-.3.9-.3.3-.8.4-.9.4h-1.4c-.7 0-3.2-.2-5.4-2.3C2.5 7.1.2 2.2.1 2 0 1.6-.1 1.2.2.9c.3-.3.8-.4 1-.4h3.1c.1 0 .4.1.7.3.3.2.4.5.5.6 0 0 .5 1.1 1.1 2 1 1.5 1.4 1.9 1.5 2 .1-.4.2-1.4.1-2.3 0-.4-.1-.8-.2-1-.1-.1-.3-.2-.5-.2l-.6-.5c0-.5.5-.9.9-1.1.5-.2 1.3-.3 2.3-.3h.5c.9 0 1.2.1 1.6.1 1.2.3 1.2 1.3 1.1 2.5v1.6c0 .3 0 .8.1 1 .2-.1.6-.5 1.5-1.9.6-.9 1-1.9 1.1-2.1.1-.3.4-.7 1.2-.7h3.4c.7 0 1.2.2 1.3.7.2.5.1 1.3-1.7 3.5-.3.3-.5.6-.7.9-.5.4-.9 1-.9 1.1 0 .1.5.5.9.9 1.1.9 1.9 1.7 2.2 2.3.4.6.3 1 .2 1.3-.3.7-1.2.7-1.4.8h-2.9zm-3.9-3.7c.7 0 1.2.6 1.8 1.2.4.4.7.8 1.1 1 .5.3 1 .3 1 .3h2.9c.1 0 .3-.1.4-.1 0 0 0-.1-.1-.1-.3-.5-1-1.3-2-2.1-.9-.7-1.3-1.1-1.4-1.7 0-.6.4-1.1 1.2-2.1.2-.2.4-.5.7-.8 1.1-1.4 1.4-2 1.5-2.3h-3.9c0 .4-.5 1.5-1.1 2.4-1.4 2.1-2 2.4-2.5 2.4-.1 0-.3 0-.4-.1-.7-.4-.7-1.4-.7-2.1V2.6c.1-1.3 0-1.3-.3-1.4-.3-.1-.5-.1-1.4-.1H10c-.5 0-1 0-1.4.1l.2.2c.4.5.4 1.5.4 1.7.1 1.3 0 2.9-.7 3.3-.1 0-.2.1-.4.1-.6 0-1.3-.7-2.5-2.5C5 2.9 4.5 1.8 4.5 1.8s0-.1-.1-.1-.2-.1-.2-.1h-3c.4.9 2.5 5 4.8 7.2 2 1.9 4.3 2 4.7 2h1.4s.2 0 .2-.1v-.1c0-.2 0-2 1.2-2.3h.2z"/></symbol><symbol viewBox="0 0 20 20" id="form-call-logo" xmlns="http://www.w3.org/2000/svg"><path d="M17.9 9.4H9.4v1.2h8.5l-2.1 2.1.9.9 3.1-3.1c.2-.2.2-.6 0-.9l-3.1-3.1-.9.9 2.1 2zm-9.8 10v-6.2c0-.3-.3-.6-.6-.6H3.1c0 .7.6 1.2 1.2 1.2h2.5v5H3.1c-1 .1-1.8-.7-1.9-1.7v-14c0-1 .8-1.8 1.7-1.8h3.9v5H4.4c-.7 0-1.2.6-1.2 1.2h4.4c.3 0 .6-.3.6-.6V.6C8.1.3 7.8 0 7.5 0H3.1C1.5-.1.1 1.2 0 2.9v13.9c-.1 1.7 1.2 3.1 2.9 3.1h4.6c.3.1.6-.2.6-.5z"/></symbol><symbol viewBox="0 0 17 13" id="form-message-logo" xmlns="http://www.w3.org/2000/svg"><path d="M15.6 11.6H1.4V5.8H0V13h17V5.8h-1.4v5.8zM0 0v2.3l8.5 7.1L17 2.3V0H0zm15.6 1.6L8.5 7.5 1.4 1.6v-.2h14.2v.2z"/></symbol><symbol viewBox="0 0 496.491 496.491" id="login-icon" xmlns="http://www.w3.org/2000/svg"><path d="M245.204 326.125c-29.326 0-53.184 22.21-53.184 49.509 0 12.964 7.64 20.704 20.436 20.704 5.876 0 12.325-1.494 18.561-2.938 5.161-1.195 10.497-2.432 14.187-2.432 3.213 0 8.283 1.182 13.185 2.325 6.421 1.497 13.061 3.045 19.186 3.045 13.033-.001 20.815-7.74 20.815-20.704-.001-27.299-23.859-49.509-53.186-49.509zm35.679 52.691c-.007.005-.727.521-3.31.521-4.169 0-9.84-1.322-15.324-2.601-6.107-1.425-11.877-2.77-17.045-2.77-5.633 0-11.932 1.459-18.023 2.87-5.305 1.23-10.792 2.5-14.725 2.5-2.183 0-2.902-.429-2.913-.389-.038-.059-.523-.858-.523-3.316 0-17.926 16.232-32.509 36.184-32.509 19.953 0 36.185 14.583 36.185 32.509 0 2.088-.387 3.035-.506 3.185zm-62.144-68.925c0-14.963-10.379-27.136-23.137-27.136-12.759 0-23.139 12.173-23.139 27.136s10.38 27.136 23.139 27.136c12.758-.001 23.137-12.174 23.137-27.136zm-29.275 0c0-5.801 3.241-10.136 6.139-10.136 2.897 0 6.137 4.335 6.137 10.136 0 5.801-3.24 10.136-6.137 10.136-2.899-.001-6.139-4.336-6.139-10.136zm57.281 10.354c12.758 0 23.138-12.173 23.138-27.136s-10.38-27.136-23.138-27.136c-12.758 0-23.137 12.173-23.137 27.136s10.379 27.136 23.137 27.136zm0-37.271c2.898 0 6.138 4.335 6.138 10.136 0 5.801-3.24 10.136-6.138 10.136-2.897 0-6.137-4.335-6.137-10.136 0-5.801 3.24-10.136 6.137-10.136zm51.144-.219c-12.759 0-23.139 12.173-23.139 27.136s10.38 27.136 23.139 27.136 23.139-12.173 23.139-27.136-10.38-27.136-23.139-27.136zm0 37.271c-2.897 0-6.139-4.335-6.139-10.136 0-5.801 3.241-10.136 6.139-10.136 2.897 0 6.139 4.335 6.139 10.136 0 5.801-3.242 10.136-6.139 10.136z"/><path d="M483.763 169.063L264.798 5.317C260.147 1.84 254.606.001 248.774.001l-.111.001-.142-.002-.173.003c-.064-.002-.126-.001-.189-.001l-.19-.002-.141.002-.111-.001c-5.832 0-11.373 1.839-16.024 5.316L12.729 169.064C.901 177.909-1.528 194.73 7.316 206.562l18.346 24.532c5.033 6.73 13.058 10.746 21.468 10.746 4.271 0 8.391-1.003 12.129-2.913v230.774c0 14.772 12.019 26.79 26.791 26.79h324.392c14.772 0 26.791-12.018 26.791-26.79V238.926a26.53 26.53 0 0012.129 2.915h.001c8.409 0 16.435-4.019 21.466-10.747l18.347-24.534c8.843-11.83 6.415-28.651-5.413-37.497zm-73.321 310.428H86.05c-5.399 0-9.791-4.392-9.791-9.79V226.708L248.247 98.095l171.986 128.612v242.994c0 5.399-4.393 9.79-9.791 9.79zm65.119-283.111l-18.347 24.533a9.717 9.717 0 01-7.853 3.928 9.697 9.697 0 01-5.849-1.952L253.337 80.673c-1.509-1.128-3.3-1.692-5.09-1.692s-3.581.564-5.09 1.692L52.979 222.89a9.702 9.702 0 01-5.849 1.95 9.722 9.722 0 01-7.854-3.928l-18.345-24.53c-3.232-4.324-2.345-10.472 1.978-13.704L241.874 18.933c1.689-1.264 3.709-1.931 5.934-1.931h.003c.065 0 .129.001.194-.001l.173.002h.137l.193-.002h.266c2.133 0 4.154.668 5.843 1.932l218.965 163.744c4.323 3.233 5.209 9.381 1.979 13.703z"/><path d="M311.179 208.345c-24.104 0-46.524 9.634-62.933 26.746-16.409-17.112-38.831-26.746-62.933-26.746-48.179 0-87.376 39.196-87.376 87.376 0 22.47 7.983 45.104 23.727 67.277 12.252 17.254 29.241 34.292 50.495 50.642 35.829 27.56 71.116 43.561 72.601 44.228a8.496 8.496 0 006.578.166c1.49-.582 36.919-14.563 72.867-41.151 21.33-15.776 38.378-32.738 50.67-50.413 15.713-22.592 23.68-46.395 23.68-70.749 0-48.18-39.196-87.376-87.376-87.376zm-62.714 232.47c-20.799-10.101-133.528-68.413-133.528-145.094 0-38.806 31.57-70.376 70.376-70.376 22.243 0 42.71 10.189 56.155 27.956a8.5 8.5 0 0013.556 0c13.444-17.767 33.912-27.956 56.155-27.956 38.806 0 70.376 31.57 70.376 70.376 0 83.866-112.197 136.1-133.09 145.094z"/></symbol><symbol viewBox="0 0 0 0" id="sprite" xmlns="http://www.w3.org/2000/svg"/></svg>